#ifdef __TARGET_gb
#pragma bank 3
#include "hUGEDriver.h"
#include <stddef.h>

static const unsigned char order_cnt = 12;

static const unsigned char P0[] = {
    DN(___,0,0xE00),
    DN(___,0,0x000),
    DN(___,0,0x000),
    DN(___,0,0x000),
    DN(___,0,0x000),
    DN(___,0,0x000),
    DN(___,0,0x000),
    DN(___,0,0x000),
    DN(___,0,0x000),
    DN(___,0,0x000),
    DN(___,0,0x000),
    DN(___,0,0x000),
    DN(___,0,0x000),
    DN(___,0,0x000),
    DN(___,0,0x000),
    DN(___,0,0x000),
    DN(___,0,0x000),
    DN(___,0,0x000),
    DN(___,0,0x000),
    DN(___,0,0x000),
    DN(___,0,0x000),
    DN(___,0,0x000),
    DN(___,0,0x000),
    DN(___,0,0x000),
    DN(___,0,0x000),
    DN(___,0,0x000),
    DN(___,0,0x000),
    DN(___,0,0x000),
    DN(___,0,0x000),
    DN(___,0,0x000),
    DN(___,0,0x000),
    DN(___,0,0x000),
    DN(E_5,3,0xC77),
    DN(___,0,0x000),
    DN(___,0,0x000),
    DN(___,0,0x000),
    DN(E_5,3,0xC77),
    DN(___,0,0x000),
    DN(___,0,0x000),
    DN(___,0,0x000),
    DN(E_5,3,0xC77),
    DN(___,0,0x000),
    DN(___,0,0x000),
    DN(___,0,0x000),
    DN(E_5,3,0xC77),
    DN(___,0,0x000),
    DN(___,0,0x000),
    DN(___,0,0x000),
    DN(E_5,3,0xC77),
    DN(___,0,0x000),
    DN(___,0,0x000),
    DN(___,0,0x000),
    DN(E_5,3,0xC77),
    DN(___,0,0x000),
    DN(___,0,0x000),
    DN(___,0,0x000),
    DN(E_5,3,0xC77),
    DN(___,0,0x000),
    DN(___,0,0x000),
    DN(___,0,0x000),
    DN(E_5,3,0xC77),
    DN(___,0,0x000),
    DN(___,0,0x000),
    DN(___,0,0x000),
};
static const unsigned char P1[] = {
    DN(___,0,0xE00),
    DN(___,0,0x000),
    DN(___,0,0x000),
    DN(___,0,0x000),
    DN(___,0,0x000),
    DN(___,0,0x000),
    DN(___,0,0x000),
    DN(___,0,0x000),
    DN(___,0,0x000),
    DN(___,0,0x000),
    DN(___,0,0x000),
    DN(___,0,0x000),
    DN(___,0,0x000),
    DN(___,0,0x000),
    DN(___,0,0x000),
    DN(___,0,0x000),
    DN(___,0,0x000),
    DN(___,0,0x000),
    DN(___,0,0x000),
    DN(___,0,0x000),
    DN(___,0,0x000),
    DN(___,0,0x000),
    DN(___,0,0x000),
    DN(___,0,0x000),
    DN(___,0,0x000),
    DN(___,0,0x000),
    DN(___,0,0x000),
    DN(___,0,0x000),
    DN(___,0,0x000),
    DN(___,0,0x000),
    DN(___,0,0x000),
    DN(___,0,0x000),
    DN(A_4,3,0xC77),
    DN(___,0,0x000),
    DN(___,0,0x000),
    DN(___,0,0x000),
    DN(A_4,3,0xC77),
    DN(___,0,0x000),
    DN(___,0,0x000),
    DN(___,0,0x000),
    DN(A_4,3,0xC77),
    DN(___,0,0x000),
    DN(___,0,0x000),
    DN(___,0,0x000),
    DN(A_4,3,0xC77),
    DN(___,0,0x000),
    DN(___,0,0x000),
    DN(___,0,0x000),
    DN(A_4,3,0xC77),
    DN(___,0,0x000),
    DN(___,0,0x000),
    DN(___,0,0x000),
    DN(A_4,3,0xC77),
    DN(___,0,0x000),
    DN(___,0,0x000),
    DN(___,0,0x000),
    DN(A_4,3,0xC77),
    DN(___,0,0x000),
    DN(___,0,0x000),
    DN(___,0,0x000),
    DN(A_4,3,0xC77),
    DN(___,0,0x000),
    DN(___,0,0x000),
    DN(___,0,0x000),
};
static const unsigned char P2[] = {
    DN(___,0,0x000),
    DN(___,0,0x000),
    DN(___,0,0x000),
    DN(___,0,0x000),
    DN(___,0,0x000),
    DN(___,0,0x000),
    DN(___,0,0x000),
    DN(___,0,0x000),
    DN(___,0,0x000),
    DN(___,0,0x000),
    DN(___,0,0x000),
    DN(___,0,0x000),
    DN(___,0,0x000),
    DN(___,0,0x000),
    DN(___,0,0x000),
    DN(___,0,0x000),
    DN(___,0,0x000),
    DN(___,0,0x000),
    DN(___,0,0x000),
    DN(___,0,0x000),
    DN(___,0,0x000),
    DN(___,0,0x000),
    DN(___,0,0x000),
    DN(___,0,0x000),
    DN(___,0,0x000),
    DN(___,0,0x000),
    DN(___,0,0x000),
    DN(___,0,0x000),
    DN(___,0,0x000),
    DN(___,0,0x000),
    DN(___,0,0x000),
    DN(___,0,0x000),
    DN(___,0,0x000),
    DN(___,0,0x000),
    DN(___,0,0x000),
    DN(___,0,0x000),
    DN(___,0,0x000),
    DN(___,0,0x000),
    DN(___,0,0x000),
    DN(___,0,0x000),
    DN(___,0,0x000),
    DN(___,0,0x000),
    DN(___,0,0x000),
    DN(___,0,0x000),
    DN(___,0,0x000),
    DN(___,0,0x000),
    DN(___,0,0x000),
    DN(___,0,0x000),
    DN(___,0,0x000),
    DN(___,0,0x000),
    DN(___,0,0x000),
    DN(___,0,0x000),
    DN(___,0,0x000),
    DN(___,0,0x000),
    DN(___,0,0x000),
    DN(___,0,0x000),
    DN(___,0,0x000),
    DN(___,0,0x000),
    DN(___,0,0x000),
    DN(___,0,0x000),
    DN(___,0,0x000),
    DN(___,0,0x000),
    DN(___,0,0x000),
    DN(___,0,0x000),
};
static const unsigned char P4[] = {
    DN(A_4,3,0xC77),
    DN(___,0,0x000),
    DN(___,0,0x000),
    DN(___,0,0x000),
    DN(F_5,3,0xC77),
    DN(___,0,0x000),
    DN(___,0,0x000),
    DN(___,0,0x000),
    DN(F_5,3,0xC77),
    DN(___,0,0x000),
    DN(___,0,0x000),
    DN(___,0,0x000),
    DN(F_5,3,0xC77),
    DN(___,0,0x000),
    DN(___,0,0x000),
    DN(___,0,0x000),
    DN(A_4,3,0xC77),
    DN(___,0,0x000),
    DN(___,0,0x000),
    DN(___,0,0x000),
    DN(D_5,3,0xC77),
    DN(___,0,0x000),
    DN(___,0,0x000),
    DN(___,0,0x000),
    DN(D_5,3,0xC77),
    DN(___,0,0x000),
    DN(___,0,0x000),
    DN(___,0,0x000),
    DN(D_5,3,0xC77),
    DN(___,0,0x000),
    DN(___,0,0x000),
    DN(___,0,0x000),
    DN(E_5,3,0xC77),
    DN(___,0,0x000),
    DN(___,0,0x000),
    DN(___,0,0x000),
    DN(E_5,3,0xC77),
    DN(___,0,0x000),
    DN(___,0,0x000),
    DN(___,0,0x000),
    DN(E_5,3,0xC77),
    DN(___,0,0x000),
    DN(___,0,0x000),
    DN(___,0,0x000),
    DN(E_5,3,0xC77),
    DN(___,0,0x000),
    DN(___,0,0x000),
    DN(___,0,0x000),
    DN(E_5,3,0xC77),
    DN(___,0,0x000),
    DN(___,0,0x000),
    DN(___,0,0x000),
    DN(E_5,3,0xC77),
    DN(___,0,0x000),
    DN(___,0,0x000),
    DN(___,0,0x000),
    DN(E_5,3,0xC77),
    DN(___,0,0x000),
    DN(___,0,0x000),
    DN(___,0,0x000),
    DN(E_5,3,0xC77),
    DN(___,0,0x000),
    DN(___,0,0x000),
    DN(___,0,0x000),
};
static const unsigned char P5[] = {
    DN(F_5,3,0xC77),
    DN(___,0,0x000),
    DN(___,0,0x000),
    DN(___,0,0x000),
    DN(A_4,3,0xC77),
    DN(___,0,0x000),
    DN(___,0,0x000),
    DN(___,0,0x000),
    DN(A_4,3,0xC77),
    DN(___,0,0x000),
    DN(___,0,0x000),
    DN(___,0,0x000),
    DN(A_4,3,0xC77),
    DN(___,0,0x000),
    DN(___,0,0x000),
    DN(___,0,0x000),
    DN(D_5,3,0xC77),
    DN(___,0,0x000),
    DN(___,0,0x000),
    DN(___,0,0x000),
    DN(A_4,3,0xC77),
    DN(___,0,0x000),
    DN(___,0,0x000),
    DN(___,0,0x000),
    DN(A_4,3,0xC77),
    DN(___,0,0x000),
    DN(___,0,0x000),
    DN(___,0,0x000),
    DN(A_4,3,0xC77),
    DN(___,0,0x000),
    DN(___,0,0x000),
    DN(___,0,0x000),
    DN(A_4,3,0xC77),
    DN(___,0,0x000),
    DN(___,0,0x000),
    DN(___,0,0x000),
    DN(A_4,3,0xC77),
    DN(___,0,0x000),
    DN(___,0,0x000),
    DN(___,0,0x000),
    DN(A_4,3,0xC77),
    DN(___,0,0x000),
    DN(___,0,0x000),
    DN(___,0,0x000),
    DN(A_4,3,0xC77),
    DN(___,0,0x000),
    DN(___,0,0x000),
    DN(___,0,0x000),
    DN(A_4,3,0xC77),
    DN(___,0,0x000),
    DN(___,0,0x000),
    DN(___,0,0x000),
    DN(A_4,3,0xC77),
    DN(___,0,0x000),
    DN(___,0,0x000),
    DN(___,0,0x000),
    DN(A_4,3,0xC77),
    DN(___,0,0x000),
    DN(___,0,0x000),
    DN(___,0,0x000),
    DN(A_4,3,0xC77),
    DN(___,0,0x000),
    DN(___,0,0x000),
    DN(___,0,0x000),
};
static const unsigned char P20[] = {
    DN(A_4,3,0xC77),
    DN(___,0,0x000),
    DN(___,0,0x000),
    DN(___,0,0x000),
    DN(F_5,3,0xC77),
    DN(___,0,0x000),
    DN(___,0,0x000),
    DN(___,0,0x000),
    DN(F_5,3,0xC77),
    DN(___,0,0x000),
    DN(___,0,0x000),
    DN(___,0,0x000),
    DN(F_5,3,0xC77),
    DN(___,0,0x000),
    DN(___,0,0x000),
    DN(___,0,0x000),
    DN(A_4,3,0xC77),
    DN(___,0,0x000),
    DN(___,0,0x000),
    DN(___,0,0x000),
    DN(D_5,3,0xC77),
    DN(___,0,0x000),
    DN(___,0,0x000),
    DN(___,0,0x000),
    DN(D_5,3,0xC77),
    DN(___,0,0x000),
    DN(___,0,0x000),
    DN(___,0,0x000),
    DN(D_5,3,0xC77),
    DN(___,0,0x000),
    DN(___,0,0x000),
    DN(___,0,0x000),
    DN(___,0,0x000),
    DN(___,0,0x000),
    DN(___,0,0x000),
    DN(___,0,0x000),
    DN(___,0,0xE00),
    DN(___,0,0x000),
    DN(___,0,0x000),
    DN(___,0,0x000),
    DN(___,0,0x000),
    DN(___,0,0x000),
    DN(___,0,0x000),
    DN(___,0,0x000),
    DN(___,0,0x000),
    DN(___,0,0x000),
    DN(___,0,0x000),
    DN(___,0,0x000),
    DN(___,0,0x000),
    DN(___,0,0x000),
    DN(___,0,0x000),
    DN(___,0,0x000),
    DN(___,0,0x000),
    DN(___,0,0x000),
    DN(___,0,0x000),
    DN(___,0,0x000),
    DN(___,0,0x000),
    DN(___,0,0x000),
    DN(___,0,0x000),
    DN(___,0,0x000),
    DN(___,0,0x000),
    DN(___,0,0x000),
    DN(___,0,0x000),
    DN(___,0,0x000),
};
static const unsigned char P21[] = {
    DN(F_5,3,0xC77),
    DN(___,0,0x000),
    DN(___,0,0x000),
    DN(___,0,0x000),
    DN(A_4,3,0xC77),
    DN(___,0,0x000),
    DN(___,0,0x000),
    DN(___,0,0x000),
    DN(A_4,3,0xC77),
    DN(___,0,0x000),
    DN(___,0,0x000),
    DN(___,0,0x000),
    DN(A_4,3,0xC77),
    DN(___,0,0x000),
    DN(___,0,0x000),
    DN(___,0,0x000),
    DN(D_5,3,0xC77),
    DN(___,0,0x000),
    DN(___,0,0x000),
    DN(___,0,0x000),
    DN(A_4,3,0xC77),
    DN(___,0,0x000),
    DN(___,0,0x000),
    DN(___,0,0x000),
    DN(A_4,3,0xC77),
    DN(___,0,0x000),
    DN(___,0,0x000),
    DN(___,0,0x000),
    DN(A_4,3,0xC77),
    DN(___,0,0x000),
    DN(___,0,0x000),
    DN(___,0,0x000),
    DN(___,0,0x000),
    DN(___,0,0x000),
    DN(___,0,0x000),
    DN(___,0,0x000),
    DN(___,0,0xE00),
    DN(___,0,0x000),
    DN(___,0,0x000),
    DN(___,0,0x000),
    DN(___,0,0x000),
    DN(___,0,0x000),
    DN(___,0,0x000),
    DN(___,0,0x000),
    DN(___,0,0x000),
    DN(___,0,0x000),
    DN(___,0,0x000),
    DN(___,0,0x000),
    DN(___,0,0x000),
    DN(___,0,0x000),
    DN(___,0,0x000),
    DN(___,0,0x000),
    DN(___,0,0x000),
    DN(___,0,0x000),
    DN(___,0,0x000),
    DN(___,0,0x000),
    DN(___,0,0x000),
    DN(___,0,0x000),
    DN(___,0,0x000),
    DN(___,0,0x000),
    DN(___,0,0x000),
    DN(___,0,0x000),
    DN(___,0,0x000),
    DN(___,0,0x000),
};

static const unsigned char* const order1[] = {P0,P4,P4,P4,P4,P20};
static const unsigned char* const order2[] = {P1,P5,P5,P5,P5,P21};
static const unsigned char* const order3[] = {P2,P2,P2,P2,P2,P2};
static const unsigned char* const order4[] = {P2,P2,P2,P2,P2,P2};

static const hUGEDutyInstr_t duty_instruments[] = {
    {8,0,240,0,128},
    {8,64,240,0,128},
    {8,128,240,0,128},
    {8,192,240,0,128},
    {8,0,241,0,128},
    {8,64,241,0,128},
    {8,128,241,0,128},
    {8,192,241,0,128},
    {8,128,240,0,128},
    {8,128,240,0,128},
    {8,128,240,0,128},
    {8,128,240,0,128},
    {8,128,240,0,128},
    {8,128,240,0,128},
    {8,128,240,0,128},
};
static const hUGEWaveInstr_t wave_instruments[] = {
    {0,32,0,0,128},
    {0,32,1,0,128},
    {0,32,2,0,128},
    {0,32,3,0,128},
    {0,32,4,0,128},
    {0,32,5,0,128},
    {0,32,6,0,128},
    {0,32,7,0,128},
    {0,32,8,0,128},
    {0,32,9,0,128},
    {0,32,10,0,128},
    {0,32,11,0,128},
    {0,32,12,0,128},
    {0,32,13,0,128},
    {0,32,14,0,128},
};
static const hUGENoiseInstr_t noise_instruments[] = {
    {240,0,0,0,0},
    {240,0,0,0,0},
    {240,0,0,0,0},
    {240,0,0,0,0},
    {240,0,0,0,0},
    {240,0,0,0,0},
    {240,0,0,0,0},
    {240,0,0,0,0},
    {240,0,0,0,0},
    {240,0,0,0,0},
    {240,0,0,0,0},
    {240,0,0,0,0},
    {240,0,0,0,0},
    {240,0,0,0,0},
    {240,0,0,0,0},
};

static const unsigned char waves[] = {
    0,0,255,255,255,255,255,255,255,255,255,255,255,255,255,255,
    0,0,0,0,255,255,255,255,255,255,255,255,255,255,255,255,
    0,0,0,0,0,0,0,0,255,255,255,255,255,255,255,255,
    0,0,0,0,0,0,0,0,0,0,0,0,255,255,255,255,
    0,1,18,35,52,69,86,103,120,137,154,171,188,205,222,239,
    254,220,186,152,118,84,50,16,18,52,86,120,154,188,222,255,
    122,205,219,117,33,19,104,189,220,151,65,1,71,156,221,184,
    15,15,15,15,15,15,15,15,15,15,15,15,15,15,15,15,
    254,252,250,248,246,244,242,240,242,244,246,248,250,252,254,255,
    254,221,204,187,170,153,136,119,138,189,241,36,87,138,189,238,
    132,17,97,237,87,71,90,173,206,163,23,121,221,32,3,71,
    43,129,160,80,188,152,105,200,188,116,65,194,1,158,131,117,
    26,54,92,112,188,5,206,42,21,11,102,210,235,160,44,72,
    18,135,9,114,19,42,25,184,172,52,26,140,144,85,190,172,
    128,109,200,120,135,202,185,88,49,227,130,233,74,18,22,162,
    86,234,138,82,16,140,160,97,151,37,77,148,222,54,225,149,
};

const hUGESong_t RapHanger = {7, &order_cnt, order1, order2, order3,order4, duty_instruments, wave_instruments, noise_instruments, NULL, waves};
#endif